<?xml version="1.0" standalone="no"?><!DOCTYPE svg PUBLIC "-//W3C//DTD SVG 1.1//EN" "http://www.w3.org/Graphics/SVG/1.1/DTD/svg11.dtd"><svg t="1715831203271" class="icon" viewBox="0 0 1024 1024" version="1.1" xmlns="http://www.w3.org/2000/svg" p-id="12353" xmlns:xlink="http://www.w3.org/1999/xlink" width="200" height="200"><path d="M420.266667 505.6C373.333333 475.733333 341.333333 422.4 341.333333 362.666667c0-93.866667 76.8-170.666667 170.666667-170.666667s170.666667 76.8 170.666667 170.666667c0 59.733333-32 113.066667-78.933334 142.933333C712.533333 544 789.333333 646.4 789.333333 768c0 12.8-8.533333 21.333333-21.333333 21.333333s-21.333333-8.533333-21.333333-21.333333c0-130.133333-104.533333-234.666667-234.666667-234.666667s-234.666667 104.533333-234.666667 234.666667c0 12.8-8.533333 21.333333-21.333333 21.333333s-21.333333-8.533333-21.333333-21.333333c0-121.6 76.8-224 185.6-262.4zM512 490.666667c70.4 0 128-57.6 128-128s-57.6-128-128-128-128 57.6-128 128 57.6 128 128 128z m0 490.666666C251.733333 981.333333 42.666667 772.266667 42.666667 512S251.733333 42.666667 512 42.666667s469.333333 209.066667 469.333333 469.333333-209.066667 469.333333-469.333333 469.333333z m0-42.666666c234.666667 0 426.666667-192 426.666667-426.666667S746.666667 85.333333 512 85.333333 85.333333 277.333333 85.333333 512s192 426.666667 426.666667 426.666667z" fill="#8a8a8a" p-id="12354"></path></svg>